<svg xmlns="http://www.w3.org/2000/svg" viewBox="0 0 512 512"><path d="M337.455 133.897C433.857 133.897 512 195.96 512 272.518c0 54.665-39.846 101.933-97.729 124.502-4.038 26.225 3.938 53.969 23.951 74.174-38.413 0-70.869-25.645-81.546-60.893-6.313.549-12.724.84-19.221.84-96.396 0-174.545-62.064-174.545-138.622-.001-76.559 78.15-138.622 174.545-138.622z" fill="#1b4145"/><path d="M174.545 40.806C78.143 40.806 0 102.87 0 179.427c0 54.665 39.846 101.933 97.729 124.502 4.038 26.225-3.938 53.969-23.951 74.174 38.413 0 70.869-25.645 81.546-60.893 6.313.549 12.724.84 19.221.84 96.396 0 174.545-62.064 174.545-138.622.001-76.558-78.15-138.622-174.545-138.622z" fill="#ffd24d"/></svg>