<svg xmlns="http://www.w3.org/2000/svg" viewBox="0 0 151.045 151.045"><path d="M151.042 109.495c0-11.42-8.16-21.158-19.566-24.912 1.8-2.172 3.196-4.724 4.101-7.179 1.546-.927 2.759-2.598 3.242-4.542.44-1.768 1.414-5.64-.666-7.752v-1.739c.086-2.985.322-10.744-6.138-14.097-.168-.623-.211-1.113-.222-1.217l-.816-8.296-5.948 5.612c-.698.537-4.656 1.51-8.382 1.886l-1.528.236c-11.374 1.789-11.191 8.353-11.048 13.635.021.673.043 1.385.043 2.183l.05 1.564c-1.145 1.263-1.958 3.579-.902 7.891.483 1.929 1.725 3.593 3.242 4.413.701 1.8 2.09 4.771 4.252 7.423-4.824 1.585-9.054 4.245-12.336 7.655-3.06-1.958-6.456-3.514-10.085-4.642 2.684-3.049 4.713-6.782 6.005-10.329 2.011-1.131 3.607-3.285 4.252-5.823.569-2.301 1.847-7.401-.909-9.953v-2.609c.183-6.138-.49-14.638-8.124-18.424-.315-1.063-.372-1.893-.379-1.986l-.973-9.878-7.093 6.682c-.845.769-6.274 2.133-11.499 2.656l-2.044.322c-14.691 2.312-14.469 10.443-14.262 17.93.025.82.047 1.671.047 2.62l.072 2.337c-1.503 1.51-2.63 4.445-1.231 10.171.623 2.509 2.265 4.66 4.234 5.633.966 2.498 2.985 6.929 6.249 10.661a41.176 41.176 0 0 0-10.067 4.627c-3.293-3.425-7.541-6.08-12.376-7.669 1.797-2.18 3.192-4.724 4.101-7.186 1.56-.923 2.745-2.57 3.246-4.549.44-1.768 1.403-5.633-.666-7.745v-1.739c.086-2.985.319-10.744-6.141-14.097-.168-.623-.208-1.113-.218-1.217l-.82-8.296-5.948 5.612c-.698.537-4.66 1.51-8.382 1.886l-1.525.236c-11.377 1.789-11.191 8.353-11.048 13.632.021.673.039 1.385.039 2.187l.05 1.56c-1.145 1.26-1.954 3.579-.898 7.891.48 1.929 1.725 3.593 3.239 4.416.705 1.793 2.094 4.771 4.252 7.415C8.142 88.362 0 98.086 0 109.491v1.789h37.599c-.934 2.985-1.474 6.109-1.474 9.359v1.789h78.792v-1.789c0-3.25-.537-6.374-1.474-9.359h37.603v-1.786h-.004zm-14.18-1.789v-5.01c0-.984-.805-1.789-1.789-1.789s-1.789.805-1.789 1.789v5.01h-21.201a32.83 32.83 0 0 0-3.196-5.551c-.193-.279-.369-.565-.565-.83-1.95-2.602-4.298-4.942-6.939-6.989a25.442 25.442 0 0 1 5.733-4.277l12.701 14.419c.344.383.827.608 1.342.608.565-.029 1.02-.222 1.364-.63l12.429-14.527c6.954 3.761 11.774 10.261 12.444 17.776l-10.534.001zm-25.585 11.148H95.942v-7.312c0-.089-.036-.168-.054-.258-.129-.859-.834-1.532-1.736-1.532-.895 0-1.607.673-1.736 1.532-.011.089-.054.168-.054.258v7.312H58.661v-7.312c0-.089-.039-.168-.054-.258-.129-.859-.837-1.532-1.736-1.532s-1.61.673-1.739 1.532c-.011.089-.05.168-.05.258v7.312H39.75c.168-2.627.744-5.15 1.61-7.569.215-.601.433-1.202.691-1.789h.054l-.018-.075a32.53 32.53 0 0 1 .816-1.714 30.51 30.51 0 0 1 2.702-4.255c1.789-2.384 3.933-4.531 6.374-6.403.476-.365.938-.734 1.435-1.084.487-.336 1.002-.637 1.507-.945a33.226 33.226 0 0 1 1.965-1.138L74.19 113.53c.34.383.827.601 1.342.601h.011c.523 0 1.009-.229 1.349-.623l16.935-19.787c.784.404 1.539.837 2.28 1.299.508.308 1.02.608 1.51.945.497.351.963.719 1.432 1.084a33.179 33.179 0 0 1 6.37 6.403c1.016 1.364 1.933 2.766 2.706 4.255.29.558.558 1.131.816 1.714-.007.036-.014.057-.014.075h.054c.254.587.476 1.188.687 1.789.861 2.419 1.434 4.942 1.609 7.569zm-95.33-17.948c-.988 0-1.789.798-1.789 1.789v5.01H3.643c.659-7.43 5.372-13.875 12.2-17.658l12.712 14.419c.34.383.827.608 1.342.608.372-.029 1.016-.222 1.36-.63l12.426-14.527c2.23 1.21 4.241 2.691 5.962 4.402-2.641 2.047-4.992 4.391-6.939 6.989-.204.265-.376.551-.573.83a33.49 33.49 0 0 0-3.192 5.551H17.74v-5.01a1.784 1.784 0 0 0-1.793-1.773zm2.087-26.512l-.859-.258c-.601-.183-1.403-1.07-1.689-2.23-.712-2.92-.351-4.37.225-4.753l.83-.551-.104-3.343c0-.784-.018-1.532-.039-2.23-.147-5.243-.24-8.697 8.027-9.996l1.421-.229c.082-.007 8.274-.841 10.357-2.799l.673-.641.097.998c.025.329.14 1.503.648 2.831l.268.705.691.301c3.504 1.517 4.924 4.824 4.735 11.119v3.697l.913.519c.2.111.777.762-.143 4.452-.293 1.16-1.038 2.14-1.9 2.494l-.755.308-.258.777c-.948 2.795-2.609 5.816-4.842 7.988a11.787 11.787 0 0 1-1.879 1.503c-1.299.837-2.738 1.378-4.313 1.424-.039 0-.075.014-.111.014-.05 0-.097-.007-.15-.007-.047 0-.086.007-.132.007-.132 0-.247-.057-.376-.064a8.464 8.464 0 0 1-4.148-1.371 12.081 12.081 0 0 1-1.854-1.503c-2.799-2.756-4.434-6.696-5.028-8.332l-.305-.83zm14.53 23.029L31 91.279l1.882-1.621c1.621-.44 3.099-1.217 4.427-2.23 1.024.265 2.011.594 2.978.966l-7.723 9.029zm-6.07-7.834l1.972 1.693-1.514 5.955-7.709-8.75a27.759 27.759 0 0 1 3.164-1.041c1.203.927 2.559 1.675 4.087 2.143zm32.697-15.424l-.859-.258c-.959-.293-2.222-1.582-2.677-3.418-.888-3.629-.68-6.188.558-7.004l.827-.548-.122-4.159c0-.931-.025-1.818-.054-2.97-.197-7.068-.34-12.157 11.252-13.983l1.943-.308c.107-.018 10.898-1.145 13.496-3.604l1.804-1.693.247 2.573c.025.293.154 1.857.83 3.633l.268.701.687.301c6.224 2.691 6.882 9.287 6.7 15.432v4.599l.916.523c1.016.573 1.056 2.802.093 6.632-.437 1.729-1.575 3.207-2.906 3.754l-.755.308-.258.777c-1.321 3.919-3.686 8.163-6.871 11.162a17.05 17.05 0 0 1-1.797 1.474 13.58 13.58 0 0 1-2.613 1.453c-1.092.455-2.23.748-3.436.852-.329.029-.633.125-.97.125-.476 0-.934-.057-1.389-.104a11.82 11.82 0 0 1-3.157-.852 13.675 13.675 0 0 1-2.566-1.46 17.8 17.8 0 0 1-1.789-1.467c-3.987-3.797-6.284-9.33-7.111-11.61l-.291-.861zm20.091 31.046l-2.276-8.947 3.167-2.713-.211-.183c1.95-.623 3.74-1.621 5.361-2.895a37.625 37.625 0 0 1 5.125 1.686l-11.166 13.052zm-8.528-11.925l-.304.265 3.16 2.713-2.205 8.689-11.151-12.658a41.284 41.284 0 0 1 5.404-1.811c1.506 1.195 3.206 2.172 5.096 2.802zm38.541-18.892l-.859-.258c-.605-.19-1.406-1.07-1.693-2.23-.712-2.92-.351-4.37.222-4.753l.83-.551-.104-3.343c0-.784-.018-1.532-.039-2.237-.143-5.236-.233-8.689 8.027-9.989l1.424-.229c.075-.007 8.267-.841 10.35-2.799l.673-.641.097.998c.025.329.14 1.496.644 2.831l.268.705.694.301c3.504 1.517 4.924 4.824 4.731 11.119v3.697l.916.519c.2.111.78.762-.147 4.452-.293 1.16-1.034 2.14-1.897 2.494l-.755.308-.258.777c-.948 2.795-2.609 5.816-4.842 7.988a11.968 11.968 0 0 1-1.879 1.503c-1.299.837-2.741 1.378-4.313 1.424l.021.021c-.043 0-.082-.007-.125-.007-.057 0-.1-.007-.154-.007-.047 0-.086.007-.132.007-.132 0-.247-.057-.376-.064a8.495 8.495 0 0 1-4.151-1.371 12.147 12.147 0 0 1-1.85-1.503c-2.802-2.756-4.434-6.696-5.028-8.332l-.295-.83zm14.522 23.029l-1.564-6.145 1.882-1.621c1.621-.447 3.096-1.217 4.431-2.23 1.016.265 2.011.594 2.97.966l-7.719 9.03zm-6.062-7.834l1.968 1.693-1.514 5.955-7.709-8.75a27.759 27.759 0 0 1 3.164-1.041c1.199.927 2.563 1.682 4.091 2.143z" fill="#010002"/></svg>