<svg xmlns="http://www.w3.org/2000/svg" viewBox="0 0 512 512"><path fill="#e6e2e0" d="M305.39 372.506h-98.78v90.104L256 479.632l49.39-17.022z"/><path d="M305.39 437.995h-98.78c-6.697 0-12.126-5.429-12.126-12.126 0-6.697 5.429-12.126 12.126-12.126h98.78c6.697 0 12.126 5.429 12.126 12.126 0 6.697-5.429 12.126-12.126 12.126zm-98.78 24.615c0 27.277 22.113 49.39 49.39 49.39s49.39-22.113 49.39-49.39h-98.78z" fill="#ccc4c1"/><path d="M424.19 168.19C424.19 75.302 348.889 0 256 0S87.81 75.302 87.81 168.19c0 62.813 34.438 117.574 85.456 146.457l6.557 48.392c1.838 13.572 13.09 24.831 26.787 24.831h13.01l12.126-12.126 12.126 12.126h24.253l12.126-12.126 12.126 12.126h13.009c13.696 0 24.948-11.258 26.787-24.831l6.557-48.392c51.022-28.884 85.46-83.646 85.46-146.457z" fill="#ffb14d"/><path d="M327.662 177.485a12.131 12.131 0 0 0-14.395.406l-24.899 19.485-24.899-19.485a12.128 12.128 0 0 0-14.947 0l-24.893 19.484-24.896-19.484a12.127 12.127 0 0 0-19.029 13.228l39.917 125.41v71.339h24.253v-61.097h24.253v61.097h24.253v-71.339l39.915-125.41a12.124 12.124 0 0 0-4.633-13.634zm-56.275 125.034h-30.774l-25.879-81.308 1.42 1.112a12.13 12.13 0 0 0 14.948 0l24.893-19.484 24.899 19.485a12.13 12.13 0 0 0 14.947 0l1.425-1.116-25.879 81.311z" fill="#fff"/></svg>