<svg xmlns="http://www.w3.org/2000/svg" viewBox="0 0 512 512"><path d="M476.282 199.276c19.724 0 35.718 15.982 35.718 35.706S496.006 270.7 476.282 270.7l-68.267 24.381 24.381-95.805h43.886z" fill="#fab9a7"/><path d="M461.653 270.7c19.724 0 35.718 15.994 35.718 35.718 0 19.724-15.994 35.718-35.718 35.718h-14.629l-39.01 24.381V270.7h53.639z" fill="#f99d88"/><path d="M447.025 342.136c19.724 0 35.718 15.982 35.718 35.706 0 19.736-15.994 35.718-35.718 35.718h-39.01v-71.424h39.01z" fill="#fab9a7"/><path d="M432.396 413.56c19.724 0 35.718 15.994 35.718 35.718s-15.994 35.718-35.718 35.718l-24.381-35.718 24.381-35.718z" fill="#f99d88"/><path d="M432.396 413.56v71.436H284.258c-47.482 0-89.527-23.186-115.505-58.831H98.731v-168.07h70.022c19.2-26.331 47.165-46.031 79.604-54.382 16.152-4.169 33.865-18.676 40.18-28.587 20.833-32.67 30.891-70.936 28.635-110.373-1.122-19.688 13.934-36.571 33.621-37.693 19.7-1.122 36.571 13.934 37.693 33.621 2.804 48.981-8.131 96.646-31.244 138.594h75.154V413.56z" fill="#fad4c6"/><path fill="#1b4145" d="M0 199.277h110.927v285.72H0z"/><circle cx="55.463" cy="442.331" r="12.19" fill="#fff"/></svg>