<svg xmlns="http://www.w3.org/2000/svg" viewBox="0 0 512 512"><path d="M512 48.64c0-12.516-10.24-22.756-22.756-22.756H22.756C10.24 25.884 0 36.124 0 48.64v278.756l256.436 22.756L512 327.396V48.64z" fill="#f14742"/><path d="M256 198.827c-52.156 0-94.436 42.28-94.436 94.436h188.871c.001-52.156-42.279-94.436-94.435-94.436z" fill="#fff"/><circle cx="256" cy="118.044" r="58.027" fill="#fad4c6"/><path fill="#8b7e7f" d="M197.814 363.804h116.361v113.778H197.814z"/><path d="M395.636 486.116H116.364a8.533 8.533 0 0 1 0-17.066h279.272a8.533 8.533 0 0 1 0 17.066zM0 327.396v36.409c0 12.516 10.24 22.756 22.756 22.756h466.489c12.516 0 22.756-10.24 22.756-22.756v-36.409H0z" fill="#c2b8b9"/></svg>