<svg xmlns="http://www.w3.org/2000/svg" viewBox="0 0 512 512"><g fill="#ffd24d"><path d="M69.818 512C31.32 512 0 480.68 0 442.182s31.32-69.818 69.818-69.818 69.818 31.32 69.818 69.818S108.316 512 69.818 512zm221.091-34.909c-19.279 0-34.909-15.63-34.909-34.909C256 339.521 172.48 256 69.818 256c-19.279 0-34.909-15.63-34.909-34.909s15.63-34.909 34.909-34.909c68.381 0 132.667 26.629 181.019 74.981 48.353 48.351 74.981 112.639 74.981 181.019 0 19.279-15.63 34.909-34.909 34.909z"/><path d="M477.091 477.091c-19.279 0-34.909-15.63-34.909-34.909 0-205.322-167.042-372.364-372.364-372.364-19.279 0-34.909-15.63-34.909-34.909S50.539 0 69.818 0c59.678 0 117.591 11.696 172.127 34.764 52.659 22.273 99.945 54.151 140.542 94.749 40.599 40.598 72.476 87.882 94.749 140.542C500.303 324.591 512 382.502 512 442.182c0 19.279-15.63 34.909-34.909 34.909z"/></g></svg>